<?xml version="1.0" standalone="no"?>
<!DOCTYPE svg PUBLIC "-//W3C//DTD SVG 20010904//EN"
 "http://www.w3.org/TR/2001/REC-SVG-20010904/DTD/svg10.dtd">
<svg version="1.0" xmlns="http://www.w3.org/2000/svg"
 width="448.000000pt" height="800.000000pt" viewBox="0 0 448.000000 800.000000"
 preserveAspectRatio="xMidYMid meet">

<g transform="translate(0.000000,800.000000) scale(0.100000,-0.100000)"
fill="#000000" stroke="none">
<path d="M3648 7883 c7 -3 16 -2 19 1 4 3 -2 6 -13 5 -11 0 -14 -3 -6 -6z"/>
<path d="M868 7855 c-244 -39 -401 -183 -456 -418 -16 -67 -17 -322 -17 -3422
0 -3120 1 -3355 17 -3423 50 -214 189 -354 404 -409 64 -17 158 -18 1419 -18
1267 0 1355 1 1427 18 210 49 353 188 406 394 16 64 17 272 17 3438 0 3166 -1
3374 -17 3438 -27 101 -73 184 -142 252 -72 71 -136 108 -243 137 l-78 22
-1325 2 c-1086 2 -1341 0 -1412 -11z m428 -149 c8 -11 14 -38 14 -60 1 -76 55
-157 125 -188 39 -17 1464 -25 1553 -8 100 18 158 85 169 195 3 31 12 60 21
67 20 17 364 16 440 -1 158 -33 265 -135 309 -291 17 -62 18 -203 18 -3405 0
-3177 -1 -3343 -18 -3405 -26 -94 -72 -166 -140 -216 -65 -48 -121 -69 -222
-84 -100 -14 -2559 -13 -2661 1 -193 27 -304 113 -354 277 -20 63 -20 106 -20
3427 0 3321 0 3364 20 3427 37 121 112 201 230 248 65 26 202 39 378 37 110
-2 125 -4 138 -21z"/>
<path d="M2110 4754 c-30 -8 -80 -27 -110 -42 -67 -33 -175 -139 -212 -208
-55 -101 -58 -135 -57 -534 1 -201 5 -378 9 -395 4 -16 8 -27 9 -22 0 4 15 0
32 -8 56 -29 59 -22 59 148 0 285 13 669 22 653 5 -9 12 -211 15 -450 3 -239
9 -440 12 -445 4 -6 23 -17 43 -26 l37 -15 5 33 c3 17 7 245 9 505 2 298 8
477 14 483 16 16 23 -127 23 -493 0 -185 4 -348 9 -361 5 -13 26 -35 46 -47
31 -19 39 -20 46 -9 5 8 9 223 9 479 0 494 6 668 23 651 6 -6 11 -225 14 -588
2 -318 6 -587 8 -599 5 -21 43 -44 74 -44 25 0 31 36 31 180 0 161 11 306 22
287 4 -9 11 -86 15 -171 3 -85 9 -159 12 -165 4 -5 25 -14 49 -19 41 -10 42
-10 46 22 3 17 7 98 10 179 6 213 26 214 39 2 2 -37 5 -41 44 -55 23 -8 45
-11 48 -8 4 4 9 87 11 185 5 191 10 243 23 243 5 0 12 -31 15 -70 7 -65 9 -70
31 -70 13 0 35 4 49 10 l26 10 0 203 c0 226 -9 272 -71 368 -108 169 -340 256
-539 203z"/>
<path d="M1600 3266 c0 -2 8 -10 18 -17 15 -13 16 -12 3 4 -13 16 -21 21 -21
13z"/>
<path d="M4102 7460 c0 -14 2 -19 5 -12 2 6 2 18 0 25 -3 6 -5 1 -5 -13z"/>
<path d="M4112 7410 c0 -14 2 -19 5 -12 2 6 2 18 0 25 -3 6 -5 1 -5 -13z"/>
<path d="M4123 7320 c0 -25 2 -35 4 -22 2 12 2 32 0 45 -2 12 -4 2 -4 -23z"/>
<path d="M4133 7175 c0 -33 2 -45 4 -27 2 18 2 45 0 60 -2 15 -4 0 -4 -33z"/>
<path d="M4130 4015 c0 -1682 2 -3056 5 -3053 7 6 7 6100 0 6106 -3 3 -5
-1371 -5 -3053z"/>
<path d="M346 6679 c-3 -34 -6 -108 -6 -164 0 -89 -2 -104 -17 -110 -17 -6
-17 -7 0 -19 9 -7 17 -25 17 -39 0 -14 5 -29 10 -32 7 -4 10 68 10 209 0 119
-2 216 -4 216 -2 0 -6 -28 -10 -61z"/>
<path d="M348 6096 c-8 -42 -7 -1242 1 -1386 5 -84 8 154 9 638 1 424 0 772
-2 772 -2 0 -6 -11 -8 -24z"/>
<path d="M351 4554 c0 -11 3 -14 6 -6 3 7 2 16 -1 19 -3 4 -6 -2 -5 -13z"/>
<path d="M352 4455 c0 -16 2 -22 5 -12 2 9 2 23 0 30 -3 6 -5 -1 -5 -18z"/>
<path d="M4132 880 c0 -14 2 -19 5 -12 2 6 2 18 0 25 -3 6 -5 1 -5 -13z"/>
<path d="M4123 705 c0 -27 2 -38 4 -22 2 15 2 37 0 50 -2 12 -4 0 -4 -28z"/>
<path d="M4112 620 c0 -14 2 -19 5 -12 2 6 2 18 0 25 -3 6 -5 1 -5 -13z"/>
<path d="M4101 574 c0 -11 3 -14 6 -6 3 7 2 16 -1 19 -3 4 -6 -2 -5 -13z"/>
<path d="M3820 205 c-14 -8 -20 -14 -14 -15 5 0 19 7 30 15 24 18 16 19 -16 0z"/>
<path d="M778 153 c7 -3 16 -2 19 1 4 3 -2 6 -13 5 -11 0 -14 -3 -6 -6z"/>
<path d="M818 143 c6 -2 18 -2 25 0 6 3 1 5 -13 5 -14 0 -19 -2 -12 -5z"/>
<path d="M3648 143 c7 -3 16 -2 19 1 4 3 -2 6 -13 5 -11 0 -14 -3 -6 -6z"/>
<path d="M883 133 c9 -2 25 -2 35 0 9 3 1 5 -18 5 -19 0 -27 -2 -17 -5z"/>
<path d="M3573 133 c9 -2 25 -2 35 0 9 3 1 5 -18 5 -19 0 -27 -2 -17 -5z"/>
<path d="M1523 123 c202 -2 532 -2 735 0 202 1 36 2 -368 2 -404 0 -570 -1
-367 -2z"/>
</g>
</svg>
